<svg width="147" height="19" viewBox="0 0 147 19" fill="none" xmlns="http://www.w3.org/2000/svg">
<path d="M2.938 11.633H5.174C7.683 11.633 8.151 9.501 8.151 8.656C8.151 6.823 7.059 5.666 5.252 5.666H0.988V15H2.938V11.633ZM2.938 10.021V7.278H4.485C5.694 7.278 6.201 7.655 6.201 8.565C6.201 8.981 6.201 10.021 4.745 10.021H2.938ZM15.6644 11.542C15.6644 9.046 13.9874 7.902 12.1284 7.902C10.2694 7.902 8.59239 9.046 8.59239 11.542C8.59239 14.038 10.2694 15.182 12.1284 15.182C13.9874 15.182 15.6644 14.038 15.6644 11.542ZM13.7924 11.542C13.7924 12.426 13.5324 13.648 12.1284 13.648C10.7244 13.648 10.4644 12.426 10.4644 11.542C10.4644 10.658 10.7244 9.436 12.1284 9.436C13.5324 9.436 13.7924 10.658 13.7924 11.542ZM25.9042 8.084H24.0322L22.9532 13.05H22.9272L21.8872 8.084H20.0542L19.0792 13.05H19.0532L17.9742 8.084H16.0372L17.9872 15H19.8592L20.9382 9.956H20.9642L22.0432 15H23.9152L25.9042 8.084ZM30.9394 12.972C30.7964 13.466 30.2764 13.726 29.7694 13.726C28.3004 13.726 28.1964 12.556 28.1444 12.036H32.8894V11.711C32.8894 8.552 31.0044 7.902 29.6394 7.902C26.6104 7.902 26.3244 10.567 26.3244 11.399C26.3244 14.246 27.8194 15.182 29.7694 15.182C30.9524 15.182 32.3304 14.636 32.8114 12.972H30.9394ZM28.1964 10.853C28.3004 9.943 28.7554 9.397 29.6134 9.397C30.1984 9.397 30.9134 9.735 31.0174 10.853H28.1964ZM34.081 15H35.901V11.399C35.901 10.632 36.161 9.748 37.578 9.748C37.747 9.748 37.942 9.748 38.098 9.774V7.928C37.981 7.915 37.864 7.902 37.747 7.902C36.642 7.902 36.226 8.578 35.849 9.28H35.823V8.084H34.081V15ZM43.2158 12.972C43.0728 13.466 42.5528 13.726 42.0458 13.726C40.5768 13.726 40.4728 12.556 40.4208 12.036H45.1658V11.711C45.1658 8.552 43.2808 7.902 41.9158 7.902C38.8868 7.902 38.6008 10.567 38.6008 11.399C38.6008 14.246 40.0958 15.182 42.0458 15.182C43.2288 15.182 44.6068 14.636 45.0878 12.972H43.2158ZM40.4728 10.853C40.5768 9.943 41.0318 9.397 41.8898 9.397C42.4748 9.397 43.1898 9.735 43.2938 10.853H40.4728ZM52.6884 5.666H50.8684V8.981H50.8424C50.5564 8.539 50.0104 7.902 48.8404 7.902C47.3194 7.902 45.9674 9.072 45.9674 11.464C45.9674 13.362 46.8254 15.182 48.8794 15.182C49.6334 15.182 50.4394 14.909 50.8814 14.129H50.9074V15H52.6884V5.666ZM47.8394 11.594C47.8394 10.502 48.2294 9.475 49.3864 9.475C50.6344 9.475 50.9464 10.593 50.9464 11.698C50.9464 12.725 50.4914 13.687 49.3344 13.687C48.1644 13.687 47.8394 12.413 47.8394 11.594ZM62.7328 11.594C62.7328 12.413 62.4078 13.687 61.2378 13.687C60.0808 13.687 59.6258 12.725 59.6258 11.698C59.6258 10.593 59.9378 9.475 61.1858 9.475C62.3428 9.475 62.7328 10.502 62.7328 11.594ZM59.7038 5.666H57.8838V15H59.6648V14.129H59.6908C60.1328 14.909 60.9388 15.182 61.6928 15.182C63.7468 15.182 64.6048 13.362 64.6048 11.464C64.6048 9.072 63.2528 7.902 61.7318 7.902C60.5618 7.902 60.0158 8.539 59.7298 8.981H59.7038V5.666ZM71.7912 8.084H69.8672L68.4502 13.18H68.4242L66.9422 8.084H64.9142L67.4622 15.286C67.2932 16.235 66.9292 16.326 66.2662 16.326C66.1102 16.326 65.9932 16.313 65.9152 16.3V17.756C66.1752 17.769 66.4872 17.782 66.7342 17.782C68.3202 17.782 68.5542 17.444 69.4122 14.883L71.7912 8.084Z" fill="white"/>
<path d="M86.3585 18.5504C85.359 18.5507 84.366 18.3911 83.4177 18.078C82.4903 17.8095 81.6211 17.3728 80.8542 16.7898C80.8363 16.7745 80.8217 16.7558 80.8113 16.7347C80.801 16.7137 80.795 16.6908 80.7937 16.6674C80.7924 16.644 80.796 16.6206 80.804 16.5986C80.8121 16.5766 80.8246 16.5565 80.8407 16.5394C80.9641 16.4246 81.0782 16.3004 81.1818 16.1678C81.1948 16.1484 81.2116 16.1319 81.2312 16.1191C81.2507 16.1063 81.2727 16.0976 81.2957 16.0934C81.3188 16.0892 81.3424 16.0896 81.3653 16.0946C81.3882 16.0996 81.4098 16.1091 81.4289 16.1226C82.8633 17.1344 84.579 17.679 86.3387 17.6808C88.0985 17.6827 89.8154 17.1418 91.2519 16.133C91.2706 16.1192 91.2919 16.1093 91.3146 16.1039C91.3372 16.0986 91.3607 16.0979 91.3836 16.1019C91.4066 16.1059 91.4284 16.1146 91.4479 16.1273C91.4673 16.14 91.4839 16.1566 91.4967 16.1759C91.5792 16.3144 91.6842 16.4383 91.8074 16.5429C91.8271 16.56 91.8426 16.5814 91.8528 16.6053C91.8631 16.6293 91.8678 16.6552 91.8666 16.6811C91.8654 16.7071 91.8584 16.7325 91.846 16.7554C91.8336 16.7783 91.8163 16.7982 91.7951 16.8136C90.2122 17.9458 88.3097 18.5536 86.3585 18.5504ZM86.3538 16.2385H86.3387C86.2264 16.2327 86.1206 16.1844 86.0432 16.1035C85.9658 16.0226 85.9226 15.9153 85.9226 15.8037C85.9226 15.6921 85.9658 15.5848 86.0432 15.5039C86.1206 15.423 86.2264 15.3747 86.3387 15.3689H86.3521C86.4644 15.3747 86.5701 15.423 86.6475 15.5039C86.7249 15.5848 86.7681 15.6921 86.7681 15.8037C86.7681 15.9153 86.7249 16.0226 86.6475 16.1035C86.5701 16.1844 86.4644 16.2327 86.3521 16.2385H86.3538ZM87.852 16.0721C87.8278 16.0722 87.8038 16.0673 87.7816 16.0577C87.7593 16.0481 87.7393 16.034 87.7229 16.0164C87.7064 15.9987 87.6938 15.9779 87.6859 15.9551C87.6779 15.9324 87.6748 15.9083 87.6768 15.8843C87.6855 15.7275 87.6657 15.5704 87.6184 15.4205C87.6117 15.398 87.6097 15.3744 87.6127 15.3512C87.6156 15.3279 87.6234 15.3055 87.6356 15.2854C87.6477 15.2653 87.6639 15.2479 87.6832 15.2343C87.7024 15.2208 87.7243 15.2113 87.7475 15.2066C88.6282 14.9959 89.452 14.597 90.1615 14.0378C90.871 13.4786 91.449 12.7725 91.8553 11.9688C92.2642 11.1466 92.4807 10.2432 92.4886 9.32622C92.4964 8.40925 92.2954 7.50236 91.9006 6.67331C91.5058 5.84425 90.9273 5.11444 90.2085 4.53839C89.4896 3.96234 88.649 3.55494 87.7492 3.34661C87.7261 3.34187 87.7043 3.33244 87.6851 3.31891C87.6659 3.30538 87.6497 3.28805 87.6376 3.26801C87.6255 3.24796 87.6177 3.22564 87.6146 3.20246C87.6116 3.17927 87.6135 3.15571 87.6201 3.13328C87.6666 2.98541 87.6864 2.83057 87.6785 2.67587C87.6769 2.65208 87.6803 2.62821 87.6884 2.60575C87.6965 2.5833 87.7091 2.56273 87.7255 2.54533C87.742 2.52793 87.7618 2.51407 87.7839 2.50462C87.806 2.49516 87.8297 2.49031 87.8538 2.49036C87.8669 2.4904 87.8801 2.49196 87.8929 2.495C88.9876 2.72487 90.0091 3.21712 90.8682 3.92881C91.7272 4.64049 92.3978 5.55 92.8214 6.57799C93.2192 7.51686 93.4047 8.53097 93.3645 9.54873C93.3244 10.5665 93.0596 11.5631 92.589 12.4682C92.1184 13.3733 91.4533 14.1649 90.6407 14.787C89.8282 15.4091 88.888 15.8466 87.8865 16.0686C87.8749 16.071 87.8632 16.0721 87.8514 16.0721H87.852ZM84.8551 16.0721C84.8435 16.0721 84.832 16.0709 84.8206 16.0686C83.2666 15.7234 81.8773 14.8632 80.8815 13.6296C79.8858 12.396 79.343 10.8626 79.3425 9.282C79.342 7.70134 79.8839 6.16765 80.8789 4.93348C81.8739 3.69931 83.2627 2.83826 84.8165 2.4921C84.829 2.48938 84.8417 2.48802 84.8545 2.48804C84.8785 2.48799 84.9023 2.49284 84.9244 2.5023C84.9464 2.51176 84.9663 2.52561 84.9827 2.54301C84.9992 2.56041 85.0118 2.58098 85.0199 2.60343C85.028 2.62589 85.0313 2.64976 85.0297 2.67356C85.0219 2.82844 85.0417 2.98348 85.0881 3.13154C85.0949 3.15393 85.0968 3.17747 85.0939 3.20066C85.091 3.22385 85.0832 3.24617 85.0711 3.26623C85.059 3.28629 85.0429 3.30364 85.0237 3.31717C85.0045 3.33071 84.9827 3.34014 84.9596 3.34488C84.0619 3.55714 83.2237 3.96688 82.507 4.54383C81.7902 5.12078 81.2132 5.85019 80.8186 6.67817C80.424 7.50616 80.2218 8.41157 80.2271 9.32751C80.2323 10.2434 80.4448 11.1465 80.8489 11.97C81.2552 12.7737 81.8333 13.4797 82.5427 14.0389C83.2522 14.5981 84.076 14.997 84.9567 15.2077C84.9799 15.2125 85.0018 15.2219 85.0212 15.2355C85.0405 15.249 85.0567 15.2664 85.0689 15.2866C85.0808 15.3068 85.0885 15.3291 85.0915 15.3524C85.0945 15.3756 85.0928 15.3991 85.0864 15.4217C85.0393 15.5716 85.0195 15.7286 85.028 15.8854C85.0301 15.9123 85.0259 15.9392 85.0158 15.9641C85.0057 15.9891 84.9899 16.0114 84.9696 16.0292C84.9377 16.0568 84.8968 16.0721 84.8545 16.0721H84.8551ZM92.6444 15.9689C92.5575 15.9691 92.4725 15.9436 92.4003 15.8957C92.328 15.8478 92.2717 15.7796 92.2386 15.6999C92.2055 15.6201 92.197 15.5324 92.2142 15.4479C92.2315 15.3634 92.2737 15.2858 92.3354 15.2251L92.343 15.217C92.4256 15.137 92.5366 15.0925 92.6521 15.0931C92.7675 15.0938 92.878 15.1396 92.9596 15.2206C93.0413 15.3017 93.0874 15.4114 93.0881 15.5259C93.0888 15.6405 93.0439 15.7507 92.9633 15.8327L92.9528 15.8425C92.9121 15.8828 92.8638 15.9147 92.8107 15.9364C92.7576 15.9581 92.7007 15.9692 92.6432 15.9689H92.6444ZM80.0405 15.9689C79.9579 15.9692 79.877 15.9463 79.8069 15.9028C79.75 15.8678 79.702 15.8202 79.6667 15.7637C79.6153 15.6818 79.5928 15.5853 79.6027 15.4893C79.6126 15.3933 79.6543 15.3033 79.7213 15.2335C79.7883 15.1636 79.8768 15.1177 79.9729 15.1032C80.0689 15.0886 80.1672 15.1061 80.2521 15.153C80.3371 15.1999 80.404 15.2734 80.4423 15.3621C80.4805 15.4508 80.4881 15.5495 80.4636 15.6429C80.4392 15.7363 80.3842 15.819 80.3073 15.878C80.2304 15.937 80.136 15.969 80.0388 15.9689H80.0405ZM78.9051 14.7822H78.8969C78.8735 14.7812 78.8505 14.7756 78.8294 14.7656C78.8082 14.7557 78.7893 14.7416 78.7737 14.7243C78.1864 13.9629 77.7461 13.1003 77.4752 12.1799C77.0109 10.7921 76.8845 9.31488 77.1063 7.86927C77.3281 6.42365 77.8919 5.05078 78.7515 3.86315C78.7667 3.84196 78.7866 3.82451 78.8097 3.81215C78.8328 3.79979 78.8584 3.79284 78.8846 3.79184H78.8934C78.9182 3.79173 78.9427 3.79684 78.9654 3.80683C78.988 3.81682 79.0083 3.83147 79.0248 3.84981C79.1299 3.97223 79.2546 4.07663 79.394 4.15881C79.4139 4.17152 79.431 4.18825 79.444 4.20792C79.457 4.22758 79.4657 4.24975 79.4696 4.27297C79.4735 4.2962 79.4723 4.31997 79.4664 4.34274C79.4604 4.36552 79.4496 4.38679 79.4348 4.40519C78.4201 5.83172 77.8762 7.53552 77.8781 9.28174C77.88 11.028 78.4276 12.7306 79.4454 14.155C79.459 14.1739 79.4686 14.1954 79.4737 14.2181C79.4789 14.2408 79.4793 14.2643 79.4751 14.2871C79.4708 14.3099 79.4619 14.3316 79.4489 14.3509C79.436 14.3703 79.4193 14.3868 79.3998 14.3996C79.266 14.5022 79.1408 14.6154 79.0254 14.7382C78.9923 14.7674 78.9494 14.7832 78.9051 14.7822ZM93.7991 14.7585C93.7742 14.7587 93.7496 14.7536 93.7268 14.7436C93.7041 14.7336 93.6837 14.7189 93.6671 14.7005C93.5619 14.5783 93.4372 14.4741 93.298 14.3921C93.2784 14.3795 93.2616 14.3631 93.2487 14.3438C93.2358 14.3246 93.227 14.3029 93.2229 14.2801C93.2188 14.2573 93.2194 14.2339 93.2248 14.2114C93.2302 14.1889 93.2402 14.1677 93.2542 14.1492C94.2691 12.7227 94.8131 11.0189 94.8113 9.27262C94.8094 7.52634 94.2617 5.82366 93.2437 4.39939C93.2301 4.38043 93.2205 4.35897 93.2155 4.33627C93.2104 4.31357 93.21 4.29009 93.2143 4.26723C93.2185 4.24437 93.2273 4.22258 93.2402 4.20317C93.2531 4.18375 93.2697 4.16709 93.2892 4.15417C93.4228 4.0513 93.548 3.93809 93.6636 3.81561C93.6953 3.78612 93.737 3.76938 93.7804 3.76865H93.7898C93.8133 3.76957 93.8363 3.77518 93.8576 3.78514C93.8789 3.7951 93.8979 3.80921 93.9136 3.82663C94.5008 4.58749 94.9409 5.44981 95.2114 6.36987C95.6762 7.75744 95.803 9.23457 95.5816 10.6802C95.3602 12.1258 94.7968 13.4988 93.9375 14.6866C93.9221 14.7078 93.9021 14.7252 93.8789 14.7377C93.8558 14.7501 93.8301 14.7572 93.8038 14.7585H93.7991ZM86.3445 12.1735C85.7669 12.1735 85.2023 12.0035 84.722 11.685C84.2418 11.3665 83.8674 10.9138 83.6464 10.3841C83.4254 9.85446 83.3675 9.27165 83.4802 8.70937C83.5929 8.14709 83.871 7.63061 84.2795 7.22523C84.6879 6.81985 85.2083 6.54379 85.7748 6.43194C86.3413 6.3201 86.9285 6.3775 87.4621 6.59689C87.9957 6.81628 88.4518 7.1878 88.7727 7.66448C89.0936 8.14115 89.2649 8.70157 89.2649 9.27486C89.264 10.0433 88.956 10.7801 88.4085 11.3235C87.861 11.8669 87.1188 12.1726 86.3445 12.1735ZM80.0364 3.45792C79.9498 3.45808 79.8651 3.43274 79.793 3.38512C79.7209 3.3375 79.6646 3.26973 79.6313 3.19038C79.598 3.11103 79.5891 3.02365 79.6058 2.9393C79.6225 2.85494 79.664 2.7774 79.7251 2.71646L79.7356 2.70602C79.8178 2.62415 79.9294 2.57803 80.0458 2.57781C80.1623 2.57759 80.274 2.6233 80.3565 2.70486C80.439 2.78643 80.4855 2.89718 80.4857 3.01274C80.4859 3.12831 80.4399 3.23923 80.3577 3.32111L80.3495 3.32922C80.3087 3.37042 80.2599 3.40304 80.2062 3.42515C80.1524 3.44726 80.0947 3.45841 80.0364 3.45792ZM92.6403 3.45792C92.5559 3.45793 92.4733 3.43421 92.402 3.38951C92.3836 3.36729 92.3641 3.34601 92.3436 3.32574C92.3231 3.30538 92.3017 3.28603 92.2793 3.26777C92.2364 3.202 92.2121 3.12596 92.209 3.04764C92.2059 2.96932 92.2242 2.89163 92.2619 2.82274C92.2995 2.75385 92.3552 2.69632 92.423 2.65619C92.4909 2.61606 92.5683 2.59482 92.6473 2.59471C92.7438 2.59481 92.8376 2.62642 92.9143 2.68467C92.9909 2.74292 93.0461 2.82457 93.0713 2.91704C93.0911 2.99081 93.0911 3.06845 93.0712 3.1422C93.0513 3.21595 93.0123 3.28323 92.958 3.33734C92.8725 3.41608 92.7592 3.45834 92.6426 3.45502L92.6403 3.45792ZM86.3538 3.18777H86.3445C86.287 3.18815 86.2299 3.17728 86.1766 3.15578C86.1233 3.13428 86.0748 3.10258 86.0339 3.06247C85.9929 3.02237 85.9604 2.97465 85.938 2.92204C85.9156 2.86944 85.9039 2.81297 85.9035 2.75588C85.9031 2.69878 85.9141 2.64217 85.9357 2.58927C85.9574 2.53637 85.9894 2.48823 86.0298 2.44758C86.0702 2.40694 86.1182 2.37459 86.1712 2.35239C86.2242 2.33019 86.2811 2.31857 86.3387 2.31819H86.3533C86.4694 2.31819 86.5809 2.36399 86.663 2.44553C86.7452 2.52707 86.7913 2.63766 86.7913 2.75298C86.7913 2.86829 86.7452 2.97888 86.663 3.06042C86.5809 3.14196 86.4694 3.18777 86.3533 3.18777H86.3538ZM91.3606 2.46138C91.3241 2.46155 91.2885 2.45018 91.2589 2.42891C89.8249 1.41754 88.1098 0.873164 86.3505 0.870983C84.5913 0.868802 82.8748 1.40893 81.4382 2.41674C81.4087 2.43913 81.3726 2.45116 81.3354 2.45094C81.3257 2.45175 81.3159 2.45175 81.3062 2.45094C81.2828 2.4472 81.2603 2.43861 81.2404 2.42573C81.2205 2.41284 81.2035 2.39596 81.1906 2.37616C81.1078 2.23789 81.0026 2.1141 80.8793 2.00977C80.8597 1.99248 80.8443 1.97105 80.8342 1.94708C80.8241 1.9231 80.8195 1.89718 80.8209 1.87122C80.8217 1.84515 80.8286 1.81963 80.8409 1.79662C80.8533 1.7736 80.8708 1.75371 80.8921 1.73846C82.0886 0.885296 83.4718 0.325691 84.9283 0.105512C86.3848 -0.114667 87.8731 0.0108471 89.2713 0.471768C90.1986 0.740628 91.0678 1.17757 91.8349 1.76049C91.8527 1.77584 91.8672 1.7946 91.8775 1.81565C91.8879 1.8367 91.8938 1.85961 91.895 1.883C91.8962 1.90638 91.8926 1.92977 91.8845 1.95175C91.8764 1.97374 91.8639 1.99387 91.8477 2.01093C91.724 2.12543 91.61 2.2497 91.5066 2.38253C91.4937 2.40187 91.477 2.41845 91.4576 2.43129C91.4381 2.44413 91.4162 2.45298 91.3933 2.45732C91.3823 2.45912 91.3711 2.4599 91.36 2.45964L91.3606 2.46138Z" fill="url(#paint0_linear_2743_11119)"/>
<path d="M141.937 14.6575C141.352 14.7 140.765 14.6087 140.222 14.3906C139.679 14.1726 139.195 13.8336 138.807 13.4004C138.138 12.5327 137.776 11.4731 137.776 10.3834C137.776 9.2938 138.138 8.23411 138.807 7.36638C139.638 6.55007 140.764 6.09172 141.938 6.09172C143.112 6.09172 144.238 6.55007 145.069 7.36638C145.738 8.23407 146.1 9.29378 146.1 10.3834C146.1 11.4731 145.738 12.5327 145.069 13.4004C144.681 13.8338 144.196 14.1728 143.653 14.3909C143.109 14.6089 142.522 14.7002 141.937 14.6575ZM141.928 7.86611C141.655 7.86594 141.385 7.92414 141.137 8.03667C140.889 8.14919 140.669 8.31336 140.491 8.5179C140.162 9.08471 139.989 9.72653 139.989 10.3797C139.989 11.0328 140.162 11.6746 140.491 12.2414C140.65 12.4454 140.855 12.6108 141.089 12.7249C141.323 12.839 141.58 12.8987 141.841 12.8995C141.871 12.8995 141.901 12.8995 141.93 12.8995C141.958 12.8995 141.985 12.8995 142.019 12.8995C142.28 12.8988 142.537 12.8392 142.77 12.7251C143.003 12.6109 143.207 12.4454 143.365 12.2414C143.692 11.6738 143.863 11.0323 143.863 10.3797C143.863 9.72701 143.692 9.08549 143.365 8.5179C143.187 8.31328 142.967 8.14899 142.719 8.03636C142.471 7.92373 142.201 7.86545 141.928 7.86549L141.928 7.86611ZM113.603 14.6575C113.018 14.7001 112.431 14.6088 111.887 14.3907C111.344 14.1726 110.859 13.8337 110.471 13.4004C109.802 12.5327 109.44 11.4731 109.44 10.3834C109.44 9.29378 109.802 8.23407 110.471 7.36638C111.303 6.55007 112.429 6.09172 113.603 6.09172C114.776 6.09172 115.902 6.55007 116.734 7.36638C117.403 8.23407 117.765 9.29378 117.765 10.3834C117.765 11.4731 117.403 12.5327 116.734 13.4004C116.346 13.8337 115.861 14.1727 115.318 14.3908C114.775 14.6089 114.188 14.7001 113.603 14.6575ZM113.593 7.86611C113.32 7.86594 113.05 7.92414 112.802 8.03667C112.554 8.14919 112.334 8.31336 112.156 8.5179C111.827 9.08466 111.653 9.7265 111.653 10.3797C111.653 11.0328 111.827 11.6746 112.156 12.2414C112.315 12.4454 112.519 12.6108 112.753 12.7249C112.987 12.839 113.245 12.8987 113.506 12.8995C113.536 12.8995 113.566 12.8995 113.594 12.8995C113.623 12.8995 113.65 12.8995 113.684 12.8995C113.945 12.8988 114.201 12.8392 114.435 12.7251C114.668 12.6109 114.871 12.4454 115.029 12.2414C115.356 11.6738 115.528 11.0323 115.528 10.3797C115.528 9.72701 115.356 9.08549 115.029 8.5179C114.852 8.31332 114.632 8.14907 114.384 8.03644C114.136 7.92381 113.866 7.8655 113.593 7.86549V7.86611ZM105.261 14.5915C104.74 14.5913 104.228 14.4528 103.78 14.1905C103.566 14.0424 103.375 13.8636 103.214 13.66C103.198 13.6401 103.175 13.6256 103.15 13.6185C103.125 13.6115 103.099 13.6122 103.074 13.6205C103.049 13.6289 103.028 13.6445 103.012 13.6653C102.997 13.686 102.988 13.711 102.988 13.7367V14.0604C102.988 14.1438 102.954 14.2237 102.894 14.2826C102.835 14.3415 102.754 14.3747 102.669 14.3747H101.221C101.137 14.3747 101.056 14.3415 100.996 14.2826C100.936 14.2237 100.902 14.1438 100.902 14.0604V3.84654C100.902 3.76319 100.936 3.68328 100.996 3.62434C101.056 3.56541 101.137 3.53227 101.221 3.53227H102.706C102.791 3.53227 102.872 3.56541 102.931 3.62434C102.991 3.68328 103.025 3.76319 103.025 3.84654V4.54929C103.025 4.83548 103.025 5.12166 103.025 5.40786C103.025 5.93144 103.025 6.5392 103.025 7.125C103.025 7.13732 103.027 7.14956 103.032 7.16099C103.036 7.17242 103.043 7.18283 103.052 7.1916C103.061 7.20037 103.071 7.20733 103.083 7.21209C103.094 7.21684 103.107 7.2193 103.119 7.2193C103.133 7.21933 103.146 7.21643 103.159 7.21078C103.171 7.20514 103.182 7.19689 103.191 7.18661C103.4 6.93778 103.643 6.71939 103.914 6.53797C104.324 6.29577 104.793 6.16782 105.27 6.16776C105.307 6.16776 105.344 6.16776 105.379 6.16776C105.424 6.16776 105.47 6.16776 105.515 6.16776C105.974 6.16632 106.427 6.26878 106.84 6.46722C107.252 6.66567 107.613 6.95483 107.894 7.31237C108.527 8.16441 108.847 9.20327 108.802 10.2584C108.848 11.3602 108.533 12.4473 107.905 13.3596C107.637 13.7397 107.28 14.0503 106.864 14.2648C106.448 14.4793 105.985 14.5914 105.516 14.5915C105.478 14.5915 105.44 14.5915 105.401 14.5915C105.362 14.5915 105.307 14.594 105.261 14.594L105.261 14.5915ZM104.675 8.00061C104.348 8.00097 104.028 8.10121 103.761 8.28757C103.494 8.47393 103.291 8.73728 103.182 9.04148C103.017 9.49968 102.941 9.98426 102.957 10.4701C102.933 11.073 103.095 11.669 103.421 12.1791C103.567 12.3891 103.762 12.5609 103.99 12.6796C104.218 12.7984 104.472 12.8604 104.729 12.8605C104.764 12.8605 104.798 12.8606 104.833 12.8574H104.886C105.13 12.8578 105.369 12.7978 105.584 12.6831C105.798 12.5683 105.979 12.4024 106.111 12.2006C106.438 11.6856 106.598 11.0844 106.568 10.4777C106.583 9.99672 106.507 9.51715 106.344 9.0635C106.242 8.75434 106.044 8.48486 105.777 8.29386C105.511 8.10286 105.189 8.00016 104.86 8.00061C104.831 8.00061 104.802 8.00061 104.774 8.00061C104.746 8.00061 104.707 8.00314 104.675 8.00314L104.675 8.00061ZM136.878 14.3747H135.238C135.169 14.3745 135.103 14.3474 135.054 14.2993C135.005 14.2513 134.978 14.1862 134.978 14.1183V6.60211C134.978 6.5342 135.005 6.46903 135.054 6.42096C135.103 6.37288 135.169 6.34578 135.238 6.34561H136.878C136.947 6.34561 137.013 6.37263 137.062 6.42073C137.111 6.46882 137.138 6.5341 137.138 6.60211V14.1183C137.139 14.1523 137.132 14.186 137.119 14.2175C137.106 14.249 137.087 14.2775 137.062 14.3016C137.038 14.3257 137.009 14.3448 136.977 14.3578C136.945 14.3708 136.911 14.3774 136.877 14.3772L136.878 14.3747ZM133.443 14.3747H131.698C131.629 14.3747 131.563 14.3477 131.514 14.2996C131.465 14.2515 131.438 14.1863 131.438 14.1183V12.4356C131.438 12.3677 131.466 12.3027 131.514 12.2547C131.563 12.2068 131.629 12.1798 131.698 12.1798H133.443C133.477 12.1798 133.511 12.1864 133.542 12.1992C133.574 12.2121 133.602 12.231 133.627 12.2547C133.651 12.2785 133.67 12.3067 133.683 12.3377C133.696 12.3688 133.703 12.402 133.703 12.4356V14.1183C133.703 14.1519 133.696 14.1852 133.683 14.2163C133.67 14.2474 133.651 14.2757 133.627 14.2996C133.603 14.3234 133.574 14.3422 133.542 14.3551C133.511 14.368 133.477 14.3747 133.443 14.3747ZM128.495 14.3747H127.064C126.969 14.3747 126.878 14.3377 126.811 14.2718C126.744 14.2059 126.707 14.1166 126.706 14.0234V6.69702C126.707 6.60388 126.745 6.51469 126.812 6.44889C126.879 6.38308 126.969 6.34594 127.064 6.34561H128.383C128.43 6.34538 128.477 6.35439 128.521 6.37208C128.565 6.38977 128.605 6.41583 128.638 6.44873C128.672 6.48163 128.698 6.52079 128.716 6.56398C128.734 6.60716 128.743 6.6535 128.743 6.70017C128.743 6.93901 128.743 7.17787 128.743 7.41672C128.743 7.4292 128.745 7.44158 128.75 7.45316C128.754 7.46475 128.761 7.47527 128.77 7.48416C128.779 7.49305 128.79 7.50014 128.802 7.50495C128.813 7.50977 128.826 7.51224 128.838 7.51224C128.855 7.5123 128.871 7.50827 128.885 7.50058C128.899 7.49289 128.911 7.48173 128.92 7.4682C129.104 7.16354 129.334 6.8881 129.602 6.65114C129.631 6.62788 129.666 6.60086 129.699 6.57572C130.096 6.3031 130.569 6.15718 131.053 6.15771H131.086C131.133 6.15771 131.179 6.16681 131.222 6.18456C131.266 6.20231 131.305 6.22836 131.338 6.26114C131.371 6.29391 131.397 6.33277 131.415 6.37554C131.433 6.4183 131.441 6.46416 131.441 6.51034V7.94276C131.441 8.03578 131.403 8.12494 131.336 8.19066C131.27 8.25638 131.179 8.29331 131.085 8.29347H131.06C130.971 8.28907 130.897 8.28657 130.828 8.28657C130.491 8.24639 130.148 8.30279 129.842 8.449C129.536 8.59521 129.279 8.82508 129.102 9.11123C128.911 9.56306 128.826 10.0519 128.855 10.5406V14.0271C128.855 14.0735 128.845 14.1193 128.827 14.1621C128.809 14.2048 128.782 14.2436 128.748 14.2761C128.715 14.3086 128.675 14.3343 128.632 14.3517C128.588 14.369 128.541 14.3777 128.494 14.3772L128.495 14.3747ZM125.491 14.3527H123.836C123.767 14.3524 123.701 14.3253 123.652 14.2772C123.627 14.2536 123.608 14.2254 123.595 14.1943C123.582 14.1632 123.575 14.1299 123.576 14.0962V9.46885C123.591 9.10718 123.514 8.74755 123.351 8.42299C123.243 8.23286 123.081 8.07835 122.884 7.97874C122.687 7.87914 122.465 7.83886 122.245 7.86296C122.214 7.86296 122.182 7.86296 122.15 7.86296C121.922 7.8625 121.697 7.91248 121.492 8.0092C121.287 8.10592 121.106 8.24694 120.964 8.42176C120.644 8.88902 120.49 9.44718 120.526 10.0095V14.0409C120.526 14.1243 120.492 14.2042 120.433 14.2631C120.373 14.3221 120.292 14.3552 120.207 14.3552H118.723C118.639 14.3552 118.557 14.3221 118.498 14.2631C118.438 14.2042 118.404 14.1243 118.404 14.0409V3.84969C118.404 3.80835 118.412 3.76741 118.429 3.72923C118.445 3.69105 118.468 3.65637 118.498 3.62718C118.528 3.5979 118.563 3.57467 118.602 3.55882C118.64 3.54296 118.682 3.53481 118.724 3.5348H120.208C120.292 3.5348 120.373 3.56786 120.433 3.6268C120.493 3.68574 120.527 3.76573 120.527 3.84908V7.07728C120.527 7.09675 120.533 7.11572 120.544 7.1316C120.556 7.14748 120.572 7.15949 120.59 7.1659C120.609 7.17265 120.629 7.17343 120.649 7.16812C120.668 7.16282 120.685 7.1517 120.697 7.13636C120.933 6.82095 121.243 6.56685 121.601 6.39594C122.001 6.21418 122.436 6.11979 122.876 6.11934H122.925C123.357 6.11892 123.787 6.19757 124.191 6.35129C124.664 6.53721 125.069 6.86162 125.35 7.28091C125.517 7.52417 125.63 7.80003 125.68 8.08984C125.74 8.60447 125.765 9.12255 125.754 9.64049V14.0988C125.754 14.1329 125.747 14.1666 125.734 14.1981C125.721 14.2295 125.701 14.258 125.676 14.2819C125.652 14.3058 125.622 14.3246 125.59 14.3372C125.558 14.3498 125.524 14.3559 125.489 14.3552L125.491 14.3527ZM136.879 5.38837H135.238C135.17 5.38837 135.103 5.36138 135.055 5.31341C135.006 5.26543 134.979 5.20041 134.979 5.13256V3.70767C134.979 3.63976 135.006 3.57459 135.055 3.52652C135.103 3.47844 135.169 3.45134 135.238 3.45117H136.879C136.948 3.45117 137.014 3.47819 137.063 3.52629C137.111 3.57438 137.139 3.63966 137.139 3.70767V5.13256C137.139 5.16656 137.132 5.20024 137.119 5.23169C137.106 5.26315 137.087 5.29175 137.063 5.31579C137.038 5.33982 137.009 5.35883 136.977 5.37172C136.945 5.38461 136.911 5.39115 136.877 5.3909L136.879 5.38837Z" fill="white"/>
<defs>
<linearGradient id="paint0_linear_2743_11119" x1="86.3438" y1="0" x2="86.3438" y2="18.5504" gradientUnits="userSpaceOnUse">
<stop stop-color="#F4CC3A"/>
<stop offset="0.537" stop-color="#F26419"/>
<stop offset="1" stop-color="#E84855"/>
</linearGradient>
</defs>
</svg>
