<svg width="23" height="29" viewBox="0 0 23 29" fill="none" xmlns="http://www.w3.org/2000/svg">
<path d="M7.24841 13.959C7.16119 12.5971 7.56284 11.4153 8.55712 10.4676C8.71212 10.3191 8.71589 10.2336 8.60388 10.0598C8.07532 9.23228 7.55562 8.39542 7.038 7.56053C7.00839 7.49844 6.96087 7.44671 6.90161 7.41205C6.84236 7.37739 6.7741 7.3614 6.70569 7.36616C5.5454 7.37396 4.50924 6.46152 4.37048 5.32979C4.21591 4.06228 4.96668 2.94629 6.17091 2.65167C6.66522 2.53513 7.1837 2.57987 7.65101 2.77939C8.11832 2.97891 8.5101 3.3228 8.76941 3.7611C9.02872 4.1994 9.14205 4.70926 9.09293 5.21657C9.0438 5.72389 8.83478 6.20223 8.49625 6.58208C8.37829 6.71435 8.36612 6.78888 8.46033 6.94086C8.97817 7.74626 9.48434 8.55706 9.97885 9.37325C9.98976 9.39861 10.0057 9.42146 10.0257 9.44042C10.0457 9.45939 10.0694 9.47406 10.0952 9.48355C10.1211 9.49303 10.1485 9.49713 10.176 9.49559C10.2035 9.49405 10.2304 9.48691 10.255 9.4746C10.8851 9.26587 11.5583 9.22431 12.2092 9.35397C12.3782 9.38806 12.4415 9.33046 12.5012 9.17942C13.0943 7.68343 13.6921 6.19002 14.2947 4.6992C14.3255 4.64329 14.3354 4.57824 14.3228 4.51564C14.3102 4.45304 14.2758 4.39698 14.2258 4.35747C13.5344 3.61366 13.3562 2.74627 13.7135 1.79842C13.9133 1.28555 14.2836 0.857871 14.7617 0.587929C15.2399 0.317986 15.7963 0.222405 16.3367 0.317397C16.8772 0.412392 17.3682 0.692112 17.7267 1.10911C18.0851 1.5261 18.2888 2.05469 18.3033 2.60521C18.3391 3.93894 17.3465 5.0238 16.0403 5.065C15.9683 5.05807 15.8962 5.07715 15.837 5.1188C15.7778 5.16046 15.7353 5.22196 15.7173 5.29224C15.1298 6.77045 14.5355 8.24615 13.9344 9.71931C13.8529 9.92481 13.8769 10.0258 14.0616 10.156C14.4068 10.3958 14.7044 10.6981 14.9392 11.0473C15.0257 11.1741 15.1003 11.2006 15.2455 11.1408C15.7254 10.9479 16.2075 10.7622 16.694 10.5875C16.8354 10.5359 16.8483 10.4532 16.853 10.325C16.8981 9.25136 17.4901 8.40699 18.4687 8.08285C19.4473 7.75872 20.2969 7.98392 20.9852 8.7268C21.66 9.45479 21.8121 10.331 21.4397 11.2457C21.0673 12.1604 20.3357 12.669 19.3317 12.7255C19.0188 12.7451 18.7052 12.6991 18.411 12.5904C18.1168 12.4818 17.8483 12.3129 17.6226 12.0944C17.5783 12.0399 17.5166 12.0024 17.4479 11.9883C17.3792 11.9742 17.3078 11.9844 17.2458 12.0171C16.7851 12.2074 16.3179 12.3826 15.8486 12.5528C15.7092 12.6033 15.655 12.6596 15.6826 12.8205C15.791 13.3943 15.7775 13.9846 15.6431 14.5528C15.5086 15.1209 15.2562 15.6542 14.9023 16.1177C14.8538 16.1672 14.826 16.2334 14.8246 16.3029C14.8233 16.3723 14.8485 16.4396 14.8951 16.491C16.3864 18.7747 17.8736 21.0615 19.3569 23.3515C19.3896 23.4125 19.4393 23.4625 19.4999 23.4954C19.5605 23.5282 19.6295 23.5425 19.6981 23.5365C20.8463 23.529 21.9117 24.4752 22.0216 25.5874C22.1508 26.8912 21.3778 28.0108 20.1804 28.2585C19.6892 28.369 19.1757 28.3205 18.7135 28.12C18.2513 27.9195 17.8642 27.5772 17.6077 27.1424C17.0654 26.2197 17.1752 25.1433 17.9072 24.3084C18.0173 24.1824 18.0171 24.1021 17.9283 23.9642C16.5139 21.8011 15.1036 19.6366 13.6972 17.4706C13.6285 17.3646 13.5794 17.2704 13.4127 17.3603C12.6398 17.7695 11.756 17.9177 10.8924 17.7828C10.7531 17.7621 10.7044 17.797 10.658 17.9141C10.0641 19.404 9.46736 20.8889 8.86781 22.3688C8.81182 22.5086 8.86618 22.5722 8.95189 22.6715C9.57769 23.349 9.80155 24.143 9.53376 25.0305C9.26596 25.918 8.64505 26.4775 7.73532 26.69C6.45821 26.9855 5.16171 26.1075 4.90226 24.7808C4.65698 23.529 5.52451 22.236 6.76782 22.0014C6.80056 21.9915 6.83448 21.9862 6.86865 21.9854C7.31964 22.0363 7.47016 21.7588 7.61406 21.386C8.11834 20.0662 8.65129 18.7579 9.18628 17.4505C9.26421 17.2603 9.23254 17.1748 9.06456 17.0664C8.66529 16.8072 8.32132 16.4709 8.05267 16.0771C7.95991 15.9414 7.88377 15.9343 7.74664 15.9938C6.9379 16.347 6.1263 16.6941 5.31184 17.0351C5.18166 17.0895 5.15644 17.1684 5.14672 17.2968C5.05794 18.4773 4.46352 19.2689 3.44198 19.5789C2.1825 19.9655 0.799082 19.2067 0.468497 17.946C0.109967 16.5874 0.902347 15.2487 2.23323 14.9567C2.60911 14.8626 3.00268 14.8661 3.37689 14.9669C3.7511 15.0676 4.09363 15.2623 4.37223 15.5326C4.52174 15.6698 4.63396 15.6628 4.7951 15.5923C5.54686 15.2672 6.29639 14.934 7.05775 14.6268C7.28216 14.5364 7.36842 14.4304 7.29027 14.1977C7.26857 14.1197 7.25456 14.0397 7.24841 13.959ZM14.2042 13.5016C14.1874 12.0475 12.9543 10.816 11.5331 10.8349C9.96701 10.8546 8.75051 12.0492 8.77064 13.5521C8.79033 15.0763 10.0011 16.3053 11.4618 16.2864C13.0459 16.2591 14.223 15.0696 14.2042 13.5016ZM15.9009 1.83927C15.6759 1.84799 15.4634 1.94555 15.3097 2.11072C15.156 2.2759 15.0735 2.49533 15.0801 2.7213C15.0951 2.94246 15.1952 3.14911 15.3592 3.29762C15.5232 3.44612 15.7383 3.52486 15.959 3.51722C16.1797 3.50957 16.3888 3.41614 16.5421 3.25664C16.6954 3.09714 16.781 2.88406 16.7808 2.66238C16.7715 2.43659 16.6739 2.22354 16.5092 2.06946C16.3445 1.91537 16.1259 1.83266 15.9009 1.83927ZM19.2614 11.2026C19.4857 11.1966 19.6985 11.1013 19.8529 10.9378C20.0072 10.7743 20.0906 10.5559 20.0845 10.3307C20.0785 10.1054 19.9835 9.89185 19.8206 9.73686C19.6577 9.58187 19.4401 9.49818 19.2157 9.5042C18.9914 9.51023 18.7786 9.60549 18.6242 9.769C18.4699 9.93252 18.3865 10.1509 18.3926 10.3761C18.3986 10.6014 18.4936 10.815 18.6565 10.97C18.8194 11.1249 19.037 11.2086 19.2614 11.2026ZM19.6688 26.778C19.7817 26.7788 19.8936 26.7569 19.9979 26.7135C20.1022 26.67 20.1967 26.6059 20.2758 26.525C20.3549 26.4441 20.4169 26.348 20.4582 26.2425C20.4995 26.137 20.5192 26.0243 20.5162 25.911C20.5131 25.7976 20.4874 25.6861 20.4405 25.583C20.3936 25.4798 20.3265 25.3873 20.2431 25.3107C20.1598 25.2342 20.062 25.1752 19.9556 25.1375C19.8491 25.0997 19.7361 25.0838 19.6234 25.0907C19.4058 25.1042 19.2019 25.2019 19.0547 25.3634C18.9075 25.5248 18.8285 25.7373 18.8343 25.9562C18.8402 26.175 18.9305 26.3829 19.0862 26.5362C19.2418 26.6896 19.4507 26.7762 19.6688 26.778ZM6.74392 5.81189C6.90934 5.8086 7.07009 5.75631 7.20597 5.66158C7.34185 5.56685 7.44679 5.43391 7.50761 5.27947C7.56842 5.12504 7.5824 4.95599 7.54778 4.79357C7.51317 4.63116 7.4315 4.48264 7.31305 4.36666C7.19459 4.25069 7.04464 4.17245 6.88203 4.14177C6.71942 4.11109 6.55142 4.12934 6.39913 4.19423C6.24685 4.25912 6.11708 4.36776 6.02613 4.50648C5.93519 4.6452 5.88713 4.80782 5.888 4.9739C5.88747 5.08588 5.90941 5.19683 5.95251 5.30013C5.9956 5.40343 6.05898 5.49697 6.13885 5.57517C6.21873 5.65337 6.31347 5.71463 6.41742 5.7553C6.52137 5.79596 6.63241 5.81521 6.74392 5.81189ZM8.09394 24.321C8.08963 24.1534 8.03593 23.9909 7.93962 23.854C7.84331 23.717 7.70871 23.6118 7.55285 23.5517C7.39698 23.4915 7.22686 23.4791 7.06398 23.516C6.90111 23.5529 6.7528 23.6374 6.63781 23.7589C6.52282 23.8804 6.44632 24.0335 6.41797 24.1986C6.38963 24.3638 6.41071 24.5337 6.47857 24.6869C6.54642 24.84 6.65799 24.9696 6.79917 25.0591C6.94035 25.1486 7.1048 25.1941 7.27172 25.1899C7.38292 25.1882 7.49267 25.1643 7.59454 25.1195C7.6964 25.0747 7.78832 25.01 7.86491 24.9291C7.9415 24.8481 8.00121 24.7527 8.04054 24.6482C8.07987 24.5438 8.09802 24.4326 8.09394 24.321ZM2.80581 18.1383C2.97081 18.1279 3.12906 18.0688 3.26075 17.9685C3.39243 17.8681 3.4917 17.7311 3.54612 17.5744C3.60054 17.4177 3.60769 17.2483 3.56668 17.0875C3.52567 16.9267 3.43831 16.7817 3.31556 16.6705C3.1928 16.5593 3.0401 16.4869 2.87657 16.4624C2.71305 16.4379 2.54597 16.4624 2.39626 16.5328C2.24655 16.6032 2.12085 16.7163 2.03493 16.8581C1.949 16.9999 1.90666 17.1639 1.9132 17.3298C1.91882 17.4416 1.94641 17.5512 1.99437 17.6522C2.04233 17.7533 2.10972 17.8439 2.19266 17.9187C2.27561 17.9936 2.37247 18.0513 2.47768 18.0884C2.58289 18.1256 2.69438 18.1415 2.80573 18.1353L2.80581 18.1383Z" fill="#0E0E0E"/>
</svg>
