<svg width="21" height="19" viewBox="0 0 21 19" fill="none" xmlns="http://www.w3.org/2000/svg">
<path d="M10.4998 18.984C7.46544 18.984 4.43108 18.9647 1.39748 18.9986C0.700697 19.0063 0.000918946 18.2364 0.00391584 17.5919C0.0263926 12.5553 0.0129091 7.51705 0.015906 2.48115C0.015906 2.04585 0.0413772 1.61055 0.0743431 1.17372C0.0924749 0.883921 0.212712 0.610795 0.412614 0.405313C0.612517 0.199831 0.878425 0.0760323 1.16072 0.0570207C1.64547 0.0185669 2.13471 0.00626378 2.62021 0.00626378C8.28884 0.00626378 13.9575 0.0185678 19.6276 -0.00219727C20.2457 -0.00219727 21.0077 0.684588 21.0039 1.41675C20.9779 6.80027 20.9779 12.1838 21.0039 17.5673C21.0077 18.2795 20.2682 19.007 19.6021 18.9993C16.564 18.9632 13.5297 18.984 10.4998 18.984ZM10.4811 17.838C13.3391 17.838 16.1971 17.838 19.0552 17.838C19.8389 17.838 19.8494 17.8327 19.8501 17.0274C19.8546 12.9149 19.8546 8.80243 19.8501 4.68993C19.8501 3.76704 19.8966 3.85318 19.032 3.85241C13.3159 3.84472 7.5998 3.84472 1.88372 3.85241C1.20417 3.85241 1.18095 3.85856 1.17645 4.5615C1.15797 7.20096 1.14848 9.83991 1.14798 12.4784C1.14798 14.0419 1.14798 15.6046 1.1772 17.1697C1.19069 17.9196 1.13375 17.838 1.83277 17.8396C4.71379 17.8432 7.59531 17.8427 10.4773 17.838H10.4811ZM5.01698 3.00412C5.15373 3.00666 5.28962 2.98135 5.41678 2.92965C5.54394 2.87794 5.65986 2.80087 5.75782 2.70289C5.85578 2.60491 5.93384 2.48796 5.98749 2.35881C6.04114 2.22967 6.06932 2.09088 6.07039 1.95049C6.06527 1.66734 5.95168 1.39766 5.75423 1.19987C5.55678 1.00208 5.29136 0.892108 5.01548 0.893775C4.74597 0.894569 4.48762 1.00429 4.29635 1.19919C4.10508 1.39409 3.99629 1.65847 3.99353 1.9351C3.98155 2.55421 4.41235 3.00335 5.01698 3.00412ZM7.82432 3.00873C7.95855 3.01171 8.09201 2.98706 8.21681 2.93624C8.34162 2.88542 8.45524 2.80945 8.55098 2.71282C8.64672 2.6162 8.72264 2.50086 8.77425 2.37363C8.82587 2.2464 8.85214 2.10984 8.85151 1.97202C8.85794 1.69336 8.75639 1.42346 8.56914 1.22158C8.38189 1.01971 8.12425 0.902367 7.85279 0.895314C7.27738 0.888393 6.76941 1.37752 6.76791 1.93895C6.77048 2.22467 6.88296 2.49777 7.08084 2.69873C7.27872 2.89969 7.54596 3.01223 7.82432 3.01181V3.00873ZM1.20342 1.94664C1.20024 2.08431 1.22372 2.22127 1.27248 2.34956C1.32125 2.47786 1.39434 2.59494 1.48752 2.69402C1.5807 2.7931 1.69211 2.87221 1.81529 2.92676C1.93848 2.98131 2.07099 3.01022 2.20514 3.01181C2.34111 3.01277 2.47594 2.98623 2.60192 2.9337C2.7279 2.88117 2.84257 2.80369 2.93938 2.70567C3.03619 2.60765 3.11324 2.49102 3.16614 2.36244C3.21904 2.23385 3.24675 2.09583 3.24768 1.95625C3.24862 1.81667 3.22276 1.67828 3.17159 1.54896C3.12042 1.41964 3.04493 1.30193 2.94944 1.20255C2.85396 1.10318 2.74034 1.02409 2.61507 0.969786C2.48981 0.915485 2.35535 0.887043 2.21937 0.886083C2.08467 0.886682 1.95141 0.914653 1.82729 0.968382C1.70316 1.02211 1.59063 1.10054 1.49619 1.19913C1.40174 1.29773 1.32724 1.41454 1.27699 1.54284C1.22675 1.67113 1.20174 1.80837 1.20342 1.94664Z" fill="#0E0E0E"/>
</svg>
