<svg width="42" height="32" viewBox="0 0 42 32" fill="none" xmlns="http://www.w3.org/2000/svg">
<g clip-path="url(#clip0_2743_11105)">
<path d="M21.0004 42.1472C32.5986 42.1472 42.0008 32.7122 42.0008 21.0736C42.0008 9.43496 32.5986 0 21.0004 0C9.4022 0 0 9.43496 0 21.0736C0 32.7122 9.4022 42.1472 21.0004 42.1472Z" fill="#F1F1F1"/>
<path d="M5.57031 12.9582C6.59984 10.931 8.00927 9.20618 9.72974 7.73576C11.9477 5.82605 14.6157 4.51762 17.4799 3.93494C18.6239 3.68741 19.7932 3.57825 20.963 3.6098C21.1639 3.98533 21.1655 5.68253 20.963 6.06619C18.5415 6.06097 16.1569 6.66102 14.0244 7.81216C11.4129 9.2143 9.39195 11.2261 7.92907 13.8036C7.87642 13.897 7.81325 13.984 7.75493 14.0742C7.64476 14.1311 7.54351 14.0864 7.4455 14.0417C6.84285 13.767 6.27421 13.4272 5.69263 13.1127C5.66243 13.0972 5.63589 13.0754 5.61479 13.0487C5.59369 13.0221 5.57852 12.9912 5.57031 12.9582Z" fill="#F48F25"/>
<path d="M20.9648 6.06532C20.9648 5.24652 20.9648 4.42772 20.9648 3.60893C22.0944 3.58118 23.2234 3.68373 24.3296 3.91455C28.0978 4.67049 31.2787 6.48637 33.8684 9.3256C34.9799 10.5236 35.8967 11.8896 36.5851 13.3735C36.4167 13.6458 36.1145 13.7198 35.8561 13.8344C35.3701 14.0482 34.9262 14.3587 34.3908 14.4465C33.9858 13.732 33.6367 12.9777 33.1013 12.342C32.8218 12.1795 32.6817 11.8836 32.4735 11.6528C32.254 11.3756 31.977 11.1407 31.8449 10.7985C31.8563 10.544 32.0353 10.392 32.1957 10.2295C32.3123 10.1124 32.3925 10.0068 32.2394 9.85801C32.0863 9.70926 31.9697 9.5979 31.7534 9.75234C31.5671 9.88646 31.4723 10.1644 31.1783 10.136C29.372 8.39653 27.2424 7.23661 24.8351 6.57659C23.5722 6.24043 22.2714 6.0686 20.9648 6.06532Z" fill="#F15C2D"/>
<path d="M5.57149 12.9583L7.75853 14.0735C7.23769 15.1716 6.7695 16.2876 6.48114 17.4752C5.67112 20.8159 6.02834 24.0429 7.39483 27.1756C7.50823 27.4349 7.65484 27.6828 7.68644 27.9705C7.7203 28.2624 7.64913 28.5568 7.48575 28.8006C7.32237 29.0444 7.07754 29.2217 6.79542 29.3003C6.5009 29.3895 6.18424 29.3692 5.90339 29.2433C5.62254 29.1173 5.3963 28.894 5.26612 28.6143C4.69068 27.4221 4.26201 26.1641 3.98954 24.8679C3.13984 20.8281 3.58453 16.9444 5.4103 13.233C5.45323 13.1371 5.51641 13.0493 5.57149 12.9583Z" fill="#F4C330"/>
<path d="M34.3913 14.4457C35.1001 14.0393 35.8493 13.7142 36.5889 13.3728C37.4227 15.0271 37.9705 16.8114 38.2089 18.6497C38.6674 22.0588 38.1579 25.3304 36.7428 28.4607C36.4001 29.2198 35.7027 29.5369 35.0369 29.2418C34.371 28.9467 34.0908 28.281 34.3678 27.5608C34.5865 26.9919 34.8489 26.444 35.0466 25.871C36.358 22.0636 36.1498 18.3287 34.4796 14.6701C34.4472 14.5969 34.418 14.5213 34.3913 14.4457Z" fill="#EA4850"/>
<path d="M31.1759 10.1378C31.3857 9.95242 31.5931 9.76385 31.8061 9.58258C32.1301 9.30378 32.1876 9.71589 32.361 9.81424C32.5343 9.91259 32.5602 10.0305 32.3909 10.189C32.1965 10.371 32.0337 10.5864 31.8571 10.7872C31.8644 10.9229 31.7761 11.0115 31.6951 11.0993C30.5004 12.3373 29.3817 13.6468 28.174 14.8733C28.0474 15.0121 27.9292 15.1584 27.82 15.3114C26.2737 16.9225 24.7987 18.6002 23.2605 20.2177C23.1584 20.3258 23.1082 20.4738 22.9834 20.5616C22.9497 20.5633 22.9164 20.5533 22.8892 20.5333C22.8619 20.5133 22.8423 20.4846 22.8336 20.4518C22.6538 19.8731 22.2318 19.5138 21.7376 19.2179C21.6779 19.1861 21.6301 19.1356 21.6016 19.0741C24.2562 16.6047 26.9104 14.135 29.564 11.6651C30.1051 11.1587 30.6389 10.645 31.1759 10.1378Z" fill="#344E5C"/>
<path d="M22.9597 20.542C22.9589 20.4947 22.9677 20.4478 22.9855 20.4041C23.0034 20.3603 23.0299 20.3207 23.0634 20.2875C24.6203 18.6115 26.1763 16.9343 27.7315 15.2561C29.1661 14.058 30.7002 12.9907 32.1696 11.8422C32.2838 11.7536 32.3826 11.6317 32.543 11.6162C32.7585 11.8352 32.945 12.081 33.0979 12.3478C32.2174 13.1378 31.3409 13.9328 30.4564 14.718C29.3718 15.682 28.2775 16.6355 27.1937 17.6003C26.3602 18.3416 25.5364 19.0951 24.7053 19.8405C24.2955 20.2079 23.8799 20.572 23.4652 20.9321C23.2657 21.0911 23.1048 21.2934 22.9946 21.5239C22.7799 21.1987 22.8083 20.8671 22.9597 20.542Z" fill="#D6D5D5"/>
<path d="M18.9213 21.5906C19.1587 21.9848 19.3336 22.4164 19.737 22.6977C19.9735 22.8602 20.2335 22.9504 20.4863 23.0659C20.498 23.105 20.4983 23.1468 20.4871 23.1861C20.4759 23.2254 20.4537 23.2607 20.4231 23.2878C19.7354 24.047 19.0542 24.8118 18.2919 25.4979C17.7492 25.9945 17.7492 25.9945 17.2114 25.4548L16.1843 24.4249C16.0895 24.3306 15.9834 24.2624 16.1495 24.1136C17.0802 23.2788 17.9995 22.4327 18.9213 21.5906Z" fill="#344E5C"/>
<path d="M18.293 25.5001L20.4873 23.0681C20.6493 23.0811 20.8154 23.0527 20.966 23.1372C20.4144 23.7273 19.7915 24.2402 19.1783 24.7629C18.8851 25.0043 18.6907 25.3774 18.293 25.5001Z" fill="#D3D3D3"/>
<path d="M32.5459 11.6097C32.2429 11.9974 31.8096 12.225 31.4305 12.5193C30.2778 13.4134 29.1171 14.2969 27.9604 15.1862C27.8957 15.2353 27.8153 15.2591 27.7344 15.2528C29.0882 13.7437 30.4652 12.2535 31.8654 10.7822L32.5459 11.6097Z" fill="#ECEDED"/>
<path d="M20.9289 23.0828C22.0589 23.0828 22.975 22.1635 22.975 21.0295C22.975 19.8956 22.0589 18.9763 20.9289 18.9763C19.7989 18.9763 18.8828 19.8956 18.8828 21.0295C18.8828 22.1635 19.7989 23.0828 20.9289 23.0828Z" fill="#1E2E37"/>
</g>
<defs>
<clipPath id="clip0_2743_11105">
<rect width="42" height="32" fill="white"/>
</clipPath>
</defs>
</svg>
