<svg width="18" height="29" viewBox="0 0 18 29" fill="none" xmlns="http://www.w3.org/2000/svg">
<path d="M8.59759 9.02217e-05C14.3067 -0.0239767 18.5412 4.7705 17.9438 10.0824C17.5239 13.8197 15.9827 17.1547 14.3886 20.469C13.0697 23.1619 11.5877 25.7707 9.95105 28.2805C9.37076 29.183 8.69147 29.2483 8.15896 28.4094C5.1397 23.6562 2.40035 18.7551 0.722605 13.3366C-0.142721 10.5448 -0.431164 7.72558 0.999099 5.0043C2.6905 1.78964 5.40424 0.197783 8.59759 9.02217e-05ZM9.00038 5.47188C8.53205 5.46478 8.06704 5.55191 7.63258 5.72816C7.19811 5.90442 6.80295 6.16624 6.47024 6.4983C6.13754 6.83036 5.874 7.22597 5.69506 7.66194C5.51611 8.09791 5.42537 8.56547 5.42815 9.03722C5.41955 9.99467 5.78891 10.9163 6.45499 11.5995C7.12108 12.2826 8.02931 12.6713 8.9799 12.6799C9.93048 12.6886 10.8456 12.3166 11.5238 11.6457C12.2021 10.9748 12.5879 10.06 12.5965 9.10255C12.6082 8.62344 12.5232 8.14693 12.3467 7.70188C12.1702 7.25683 11.9058 6.85249 11.5696 6.51337C11.2333 6.17425 10.8323 5.90739 10.3907 5.72896C9.94907 5.55053 9.47607 5.46424 9.00038 5.47532V5.47188Z" fill="#EF5A2C"/>
</svg>
