<svg width="18" height="27" viewBox="0 0 18 27" fill="none" xmlns="http://www.w3.org/2000/svg">
<path d="M8.59759 8.39995e-05C14.3067 -0.0223232 18.5412 4.4415 17.9438 9.38708C17.5239 12.8666 15.9827 15.9716 14.3886 19.0574C13.0697 21.5646 11.5877 23.9934 9.95105 26.3301C9.37076 27.1704 8.69147 27.2312 8.15896 26.4501C5.1397 22.0247 2.40035 17.4617 0.722605 12.4168C-0.142721 9.81762 -0.431164 7.19278 0.999099 4.65917C2.6905 1.66621 5.40424 0.184143 8.59759 8.39995e-05ZM9.00038 5.09451C8.53205 5.08789 8.06704 5.16902 7.63258 5.33312C7.19811 5.49721 6.80295 5.74099 6.47024 6.05014C6.13754 6.3593 5.874 6.72762 5.69506 7.13353C5.51611 7.53943 5.42537 7.97475 5.42815 8.41397C5.41955 9.30538 5.78891 10.1635 6.45499 10.7995C7.12108 11.4355 8.02931 11.7974 8.9799 11.8055C9.93048 11.8135 10.8456 11.4671 11.5238 10.8425C12.2021 10.2179 12.5879 9.3662 12.5965 8.47479C12.6082 8.02872 12.5232 7.58508 12.3467 7.17072C12.1702 6.75636 11.9058 6.37991 11.5696 6.06417C11.2333 5.74844 10.8323 5.49998 10.3907 5.33386C9.94907 5.16774 9.47607 5.0874 9.00038 5.09771V5.09451Z" fill="#E84855"/>
</svg>
