<svg width="22" height="24" viewBox="0 0 22 24" fill="none" xmlns="http://www.w3.org/2000/svg">
<path d="M21.0176 1.38603C21.0597 2.22622 21.0984 2.9915 21.1365 3.75748C21.2174 5.38745 21.2949 7.01813 21.3811 8.64811C21.3945 8.90367 21.3657 8.99819 21.1031 8.85816C19.1143 7.78831 17.123 6.72383 15.1293 5.66472C15.0731 5.63461 15.0237 5.5947 14.9355 5.53239C15.5209 5.13259 16.0716 4.7412 16.6389 4.37782C16.8956 4.21398 16.8468 4.13626 16.6322 3.98363C13.0903 1.45674 8.26527 1.86003 5.14904 4.94985C0.36677 9.69204 1.63853 17.886 7.60835 20.7987C12.2135 23.0455 17.7663 20.8687 19.8608 15.9893C19.973 15.7281 20.0612 15.6721 20.3152 15.7975C20.7977 16.0341 21.2976 16.2337 21.7961 16.4325C22.006 16.5158 22.0487 16.6082 21.9478 16.8323C20.1621 20.7742 17.2444 23.1933 13.1157 23.8493C9.42878 24.4347 6.19224 23.306 3.4977 20.6139C-1.12284 15.9984 -1.16494 8.22661 3.36806 3.51172C7.53751 -0.823683 14.0547 -1.18987 18.6318 2.66382C18.8102 2.81436 18.9325 2.82416 19.1176 2.69253C19.7251 2.25842 20.3433 1.84674 21.0176 1.38603Z" fill="#344E5C"/>
</svg>
